<?xml version="1.0" encoding="UTF-8"?>
<!DOCTYPE svg PUBLIC "-//W3C//DTD SVG 1.1//EN" "http://www.w3.org/Graphics/SVG/1.1/DTD/svg11.dtd">
<!-- Creator: CorelDRAW 2020 (64-Bit) -->
<svg xmlns="http://www.w3.org/2000/svg" xml:space="preserve" width="15.2398mm" height="3.3866mm" version="1.1" style="shape-rendering:geometricPrecision; text-rendering:geometricPrecision; image-rendering:optimizeQuality; fill-rule:evenodd; clip-rule:evenodd"
viewBox="0 0 1523.98 338.66"
 xmlns:xlink="http://www.w3.org/1999/xlink"
 xmlns:xodm="http://www.corel.com/coreldraw/odm/2003">
 <defs>
  <style type="text/css">
   <![CDATA[
    .fil0 {fill:#333332;fill-rule:nonzero}
    .fil1 {fill:#CF142B;fill-rule:nonzero}
   ]]>
  </style>
 </defs>
 <g id="Layer_x0020_1">
  <metadata id="CorelCorpID_0Corel-Layer"/>
  <g id="_2204601591760">
   <polygon class="fil0" points="154.55,332.28 76.5,332.28 76.5,131.45 154.5,131.45 "/>
   <path class="fil0" d="M266.19 200.99c-4.53,2.57 -10.29,2.21 -14.24,2.36l0 -27.93 9.48 0.52c0,0 4.72,2.88 4.76,2.91 7.96,7.37 1.85,21.09 0,22.14zm81.71 44.54c-1.43,-3.96 -3.77,-7.84 -6.85,-11.05 -6.08,-6.34 -11.34,-7.9 -15.03,-11.08 8.18,-4.73 13.45,-6.45 19.26,-17.66 6.66,-12.9 6.33,-30.7 3.94,-44.56 -1.52,-8.74 -7.12,-17.27 -13.18,-23.46l-3.95 -3.15 -6.33 -2.37 -8.41 -0.75 -144.41 0 -0.08 200.83 79.31 0c-0.06,-26.84 0,-82.92 0,-83.1 0,0.09 7.72,-0.07 8.48,0.04 12.66,2.12 9.8,18.76 9.75,30.85 -0.08,13.97 0.04,52.21 0.02,52.21 0.04,0 78.76,0 78.82,0 0.06,0 -0.19,-46.86 -0.19,-50.88 -0.02,-11.8 2.85,-24.77 -1.15,-35.87z"/>
   <path class="fil0" d="M468.72 276.23c0,6.5 -5.67,11.79 -12.67,11.79 -6.99,0 -12.65,-5.29 -12.65,-11.79l0 -89.73c0,-6.54 5.66,-11.82 12.65,-11.82 7,0 12.67,5.28 12.67,11.82l0 89.73zm23.2 -144.78l-66.63 0c-45.47,-0.98 -56.16,23.64 -56.16,50.77l0 101.6c-0.94,32.01 20.71,49.08 56.16,48.46l66.63 0c46.57,0.62 56.14,-21.3 56.14,-48.46l0 -101.6c0,-27.13 -11.14,-51.75 -56.14,-50.77z"/>
   <polygon class="fil0" points="668.9,131.45 668.9,185.61 666.1,185.23 645.14,131.45 566.47,131.45 566.38,332.28 639.99,332.28 640.01,259.14 642.78,259.14 669.19,332.28 743.7,332.28 743.6,131.45 "/>
   <path class="fil0" d="M1108.65 240.23l5.3 -50.27 2.76 0 5.49 50.27 -13.55 0zm24.28 92l80.66 0 -35.59 -200.78 -127.03 0 -32.71 200.78 82.23 0 4.42 -47.67 21.37 0 6.65 47.67z"/>
   <g>
    <polygon class="fil0" points="1334.11,133.32 1334.15,193.56 1309.31,133.32 1232.53,133.32 1231.92,334.16 1305.36,334.16 1305.26,257.21 1307.66,257.21 1336.74,334.16 1408.85,334.16 1408.86,133.32 "/>
    <path class="fil0" d="M1418.43 317.94c0,-7.07 5.69,-12.77 12.69,-12.77 6.95,0 12.66,5.7 12.66,12.77 0,7.01 -5.71,12.72 -12.66,12.72 -7,0 -12.69,-5.71 -12.69,-12.72zm-3.72 0c0,9.07 7.35,16.46 16.41,16.46 9.01,0 16.38,-7.39 16.38,-16.46 0,-9.13 -7.37,-16.53 -16.38,-16.53 -9.06,0 -16.41,7.4 -16.41,16.53z"/>
    <path class="fil0" d="M1427.71 327.54l0 -8.2 0.73 0c0.79,0 1.39,0.06 1.75,0.22 0.38,0.15 0.72,0.41 1.05,0.83 0.31,0.38 0.91,1.33 1.88,2.87l2.52 4.28 4.19 0 -2.13 -3.8c-0.86,-1.56 -1.51,-2.61 -2.01,-3.24 -0.49,-0.6 -1.12,-1.13 -1.88,-1.64 1.45,-0.22 2.59,-0.81 3.39,-1.77 0.78,-0.92 1.17,-2.16 1.17,-3.7 0,-1.22 -0.24,-2.25 -0.76,-3.11 -0.51,-0.87 -1.2,-1.47 -2.01,-1.85 -0.8,-0.34 -2.13,-0.53 -4,-0.53l-7.34 0 0 19.64 3.45 0zm0 -16.31l2.74 0c1.57,0 2.51,0.03 2.84,0.14 0.45,0.15 0.84,0.41 1.09,0.78 0.27,0.39 0.38,0.88 0.38,1.51 0,0.64 -0.11,1.17 -0.38,1.58 -0.25,0.37 -0.64,0.65 -1.07,0.77 -0.42,0.12 -1.43,0.19 -2.99,0.19l-2.61 0 0 -4.97z"/>
   </g>
   <g>
    <path class="fil1" d="M835.55 61.73c0,-31.74 26.16,-57.48 58.75,-57.48 32.45,0 58.79,25.74 58.79,57.48 0,31.81 -26.34,57.62 -58.79,57.62 -32.59,0 -58.75,-25.81 -58.75,-57.62z"/>
    <polygon class="fil1" points="860.46,332.28 833.3,257.62 833.3,332.28 762.28,332.28 762.02,131.45 999.68,131.45 999.95,332.28 929.45,332.28 929.44,257.56 903.65,332.28 "/>
   </g>
  </g>
 </g>
</svg>
